<svg height="32" viewBox="0 0 32 32" width="32" xmlns="http://www.w3.org/2000/svg"><path d="m28 15h-10.0437c-.4522-.1237-.9037-.2324-1.3381-.3352-2.8077-.6641-4.396-1.1506-4.396-3.4231a2.8684 2.8684 0 0 1 .7866-2.145 4.7888 4.7888 0 0 1 3.0137-1.09c2.8291-.07 4.1347.8894 5.2011 2.35l1.6153-1.1792a7.4727 7.4727 0 0 0 -6.83-3.1706 6.7726 6.7726 0 0 0 -4.4 1.6611 4.8274 4.8274 0 0 0 -1.3862 3.5735 4.3723 4.3723 0 0 0 1.7346 3.7585h-7.9573v2h13.6519c1.9668.57 3.1432 1.3123 3.1733 3.3579a3.119 3.119 0 0 1 -.8623 2.3931 5.8241 5.8241 0 0 1 -3.7197 1.249 6.6344 6.6344 0 0 1 -5.1451-2.6912l-1.5332 1.2842a8.5262 8.5262 0 0 0 6.647 3.407c.0088-.0012.042 0 .1 0a7.67 7.67 0 0 0 5.0481-1.8188 5.0779 5.0779 0 0 0 1.4648-3.8531 4.952 4.952 0 0 0 -1.1495-3.3281h6.3247z"/><path d="m0 0h32v32h-32z" fill="none"/></svg>