<svg height="56" viewBox="0 0 56 56" width="56" xmlns="http://www.w3.org/2000/svg"><path d="m8.7834 25.4035c4.0858 0 4.7413-1.6824 6.5548-1.6824.4151 0 .721.0874 1.2673.3496l3.7144 1.9664c.437.2404.8084.4589 1.1143.6555h.1311c.5025-1.8353 1.3109-3.0152 2.7093-3.8892v-.1311l-4.9816-2.6437c-1.5514-.8303-1.6825-1.5077-1.6825-3.4523 0-4.9379-3.9328-8.8708-8.8271-8.8708-4.8724 0-8.7834 3.9548-8.7834 8.8708 0 4.8943 3.911 8.8272 8.7834 8.8272zm0-3.5615c-2.8622 0-5.2001-2.3816-5.2001-5.2657 0-2.9496 2.3379-5.2875 5.2001-5.2875 2.9497 0 5.2657 2.3379 5.2657 5.2875 0 2.8841-2.316 5.2657-5.2657 5.2657zm0 28.426c4.8943 0 8.8271-3.9328 8.8271-8.8708 0-1.8135.0875-2.5345 1.4203-3.2555l36.9692-19.6426c-.8958-3.2774-4.4573-3.8455-9.8977-1.9009l-18.6595 6.7078c-2.622.9395-3.7363 2.2286-4.4573 4.6539l-.437 1.5949c-.3277 1.1362-.8303 1.7043-2.5345 2.5783l-3.4085 1.7916c-.5463.2841-.8522.3715-1.2673.3715-1.8135 0-2.469-1.7043-6.5548-1.7043-4.8724 0-8.7834 3.9329-8.7834 8.8053 0 4.9161 3.911 8.8708 8.7834 8.8708zm19.1619-20.6257c-.9832 0-1.8353-.8085-1.8353-1.8135 0-1.0488.8521-1.8354 1.8353-1.8354 1.005 0 1.8572.7866 1.8572 1.8354 0 1.005-.8522 1.8135-1.8572 1.8135zm18.157 11.7986c5.4838 2.032 9.0019 1.3765 9.8977-1.9883l-17.7855-9.3952-9.0238 4.7413v.2622zm-37.3189 5.2438c-2.8622 0-5.2001-2.3378-5.2001-5.2875 0-2.8841 2.3379-5.2438 5.2001-5.2438 2.9497 0 5.2657 2.3597 5.2657 5.2438 0 2.9497-2.316 5.2875-5.2657 5.2875z"/></svg>